<svg xmlns="http://www.w3.org/2000/svg" viewBox="0 0 512 512">
  <defs>
    <linearGradient id="sky" x1="0%" y1="0%" x2="100%" y2="100%">
      <stop offset="0%" style="stop-color:#4facfe;stop-opacity:1" />
      <stop offset="100%" style="stop-color:#00f2fe;stop-opacity:1" />
    </linearGradient>
    <linearGradient id="sun" x1="0%" y1="0%" x2="100%" y2="100%">
      <stop offset="0%" style="stop-color:#ffd700;stop-opacity:1" />
      <stop offset="100%" style="stop-color:#ff8c00;stop-opacity:1" />
    </linearGradient>
    <filter id="glass" x="-20%" y="-20%" width="140%" height="140%">
      <feGaussianBlur in="SourceGraphic" stdDeviation="15" result="blur" />
      <feColorMatrix in="blur" mode="matrix" values="1 0 0 0 0  0 1 0 0 0  0 0 1 0 0  0 0 0 18 -7" result="goo" />
      <feComposite in="SourceGraphic" in2="goo" operator="atop"/>
    </filter>
     <filter id="shadow" x="-50%" y="-50%" width="200%" height="200%">
      <feDropShadow dx="10" dy="10" stdDeviation="10" flood-opacity="0.3"/>
    </filter>
  </defs>

  <rect width="512" height="512" rx="120" fill="url(#sky)" />
  
  <!-- Sun -->
  <circle cx="350" cy="180" r="100" fill="url(#sun)" filter="url(#shadow)" />

  <!-- Glass Cloud -->
  <path d="M120 320 C120 380 180 380 180 380 L350 380 C410 380 410 300 350 300 C350 300 360 220 280 220 C230 220 200 260 200 260 C200 260 120 240 120 320 Z" 
        fill="rgba(255, 255, 255, 0.4)" 
        stroke="rgba(255, 255, 255, 0.6)" 
        stroke-width="2"
        style="backdrop-filter: blur(10px);"
        filter="url(#shadow)"
  />
  
  <!-- Sparkles -->
  <circle cx="420" cy="100" r="10" fill="white" opacity="0.8" />
  <circle cx="80" cy="400" r="6" fill="white" opacity="0.6" />
  <circle cx="50" cy="80" r="20" fill="rgba(255,255,255,0.2)" />

</svg>
